<svg width="115" height="39" viewBox="0 0 115 39" fill="none" xmlns="http://www.w3.org/2000/svg">
<g id="Group">
<g id="Group_2">
<path id="Vector" d="M50.402 5.91782C50.462 6.14482 50.4912 6.50451 50.4912 6.99689C50.4912 7.47008 50.462 7.82018 50.402 8.04719C50.2219 8.7282 49.8067 9.17102 49.1563 9.37884C48.8254 9.48755 48.4005 9.5419 47.8815 9.5419C47.3511 9.5419 46.9213 9.48755 46.5904 9.37884C46.3001 9.27973 46.0422 9.11826 45.8167 8.89126C45.5913 8.66425 45.4388 8.3829 45.3593 8.04878C45.2896 7.78181 45.2539 7.43331 45.2539 6.99849C45.2539 6.54448 45.2896 6.18479 45.3593 5.91942C45.4388 5.5933 45.5913 5.31833 45.8167 5.09133C46.0422 4.86432 46.2984 4.69647 46.5904 4.58776C46.8905 4.48865 47.3203 4.43909 47.8815 4.43909C48.4313 4.43909 48.8563 4.48865 49.1563 4.58776C49.8165 4.81477 50.2317 5.25758 50.402 5.91782ZM50.1165 27.2147H45.6302V11.5674H50.1165V27.2147Z" fill="#0086EE"/>
<path id="Vector_2" d="M69.4261 20.013H60.7227L62.8378 15.8726H68.0296C68.4903 15.8726 68.8941 15.831 69.2445 15.7463C69.5948 15.6631 69.9224 15.5225 70.2274 15.3242C70.5323 15.1276 70.7642 14.8367 70.9248 14.4514C71.0854 14.0677 71.1648 13.5929 71.1648 13.0318C71.1648 11.9767 70.8924 11.2334 70.3474 10.7985C69.8024 10.3653 69.0287 10.1479 68.0296 10.1479H59.5517V27.2148H55.0508V6.00745H69.4261C71.3465 6.00745 72.8371 6.5254 73.8978 7.55971C74.9586 8.59562 75.5376 9.93047 75.6382 11.5675C75.6479 11.7449 75.6528 12.549 75.6528 13.9782C75.6528 15.1116 75.4322 16.1251 74.9927 17.0172C74.5531 17.9092 73.854 18.6318 72.8987 19.1833C71.945 19.7364 70.7869 20.013 69.4261 20.013Z" fill="#0086EE"/>
<path id="Vector_3" d="M85.1247 11.5674H93.1225L90.9913 15.7382H86.865C86.4952 15.7382 86.1692 15.7526 85.8902 15.783C85.6096 15.8133 85.3031 15.8821 84.9673 15.9908C84.6316 16.0995 84.3542 16.2466 84.1353 16.4336C83.9147 16.6206 83.733 16.8844 83.5871 17.2249C83.4411 17.5654 83.3697 17.9715 83.3697 18.4447V27.2147H78.8672V17.631C78.8672 16.7837 78.9969 15.9972 79.2581 15.273C79.5176 14.5488 79.9004 13.9078 80.4064 13.3499C80.9108 12.7935 81.5661 12.3571 82.3722 12.0406C83.1767 11.7256 84.0947 11.5674 85.1247 11.5674Z" fill="#0086EE"/>
<path id="Vector_4" d="M108.217 27.2146H101.045C100.015 27.2146 99.0937 27.0564 98.2844 26.7414C97.4734 26.4265 96.8181 25.9901 96.3186 25.4322C95.8174 24.8758 95.4378 24.2348 95.1783 23.509C94.9188 22.7848 94.7891 21.9983 94.7891 21.1494V17.6293C94.7891 16.782 94.9188 15.9955 95.1783 15.2713C95.4378 14.5471 95.8206 13.9061 96.3267 13.3481C96.8311 12.7918 97.4864 12.3554 98.2925 12.0389C99.097 11.7239 100.015 11.5657 101.047 11.5657H108.219C109.249 11.5657 110.167 11.7239 110.973 12.0389C111.777 12.3538 112.433 12.7902 112.939 13.3481C113.443 13.9061 113.826 14.5455 114.087 15.2713C114.347 15.9955 114.478 16.782 114.478 17.6293V21.1494C114.478 22.2924 114.256 23.314 113.81 24.2108C113.365 25.1076 112.661 25.8334 111.701 26.3849C110.738 26.9397 109.578 27.2146 108.217 27.2146ZM109.972 20.3533V18.4446C109.972 17.9714 109.899 17.5653 109.755 17.2248C109.609 16.8843 109.427 16.6205 109.207 16.4335C108.986 16.2464 108.709 16.0978 108.375 15.9907C108.039 15.882 107.732 15.8132 107.452 15.7828C107.171 15.7541 106.847 15.7381 106.477 15.7381H102.785C102.415 15.7381 102.089 15.7525 101.81 15.7828C101.53 15.8132 101.223 15.8788 100.888 15.9827C100.552 16.0866 100.278 16.2321 100.062 16.4191C99.8463 16.6061 99.6646 16.8731 99.5138 17.2168C99.3646 17.5621 99.2884 17.9714 99.2884 18.4446V20.3517C99.2884 20.8249 99.363 21.231 99.5138 21.5715C99.6646 21.912 99.8463 22.1757 100.062 22.3628C100.276 22.5498 100.552 22.6953 100.888 22.7992C101.223 22.9031 101.53 22.9687 101.81 22.999C102.091 23.0278 102.415 23.0438 102.785 23.0438H106.477C106.847 23.0438 107.173 23.0294 107.452 22.999C107.732 22.9687 108.039 22.9031 108.375 22.7992C108.71 22.6953 108.984 22.5498 109.2 22.3628C109.416 22.1757 109.597 21.912 109.748 21.5715C109.898 21.2326 109.972 20.8265 109.972 20.3533Z" fill="#0086EE"/>
</g>
<g id="Group_3">
<path id="Vector_5" d="M34.3469 39H5.63509C2.69525 39 0.3125 36.6515 0.3125 33.7539V5.45674C0.3125 2.55918 2.69525 0.210693 5.63509 0.210693H34.3469C37.2868 0.210693 39.6695 2.55918 39.6695 5.45674V33.7557C39.6695 36.6515 37.285 39 34.3469 39Z" fill="#0086EE"/>
<g id="Group_4">
<path id="Vector_6" d="M6.8965 12.2328C7.03134 11.9041 7.40747 11.7397 7.74457 11.8621L22.0357 17.026C23.4764 17.603 23.4498 18.7537 22.0357 20.4517L13.4309 32.3829C13.2144 32.6837 12.7886 32.7501 12.487 32.5281L8.67602 29.7232C8.37618 29.5028 8.31941 29.0832 8.54828 28.7929L14.153 21.6757C14.8059 20.9238 14.7207 20.4219 14.153 20.0844L5.67585 17.0155C5.32279 16.8878 5.14537 16.4961 5.2873 16.1516L6.8965 12.2328Z" fill="white"/>
<path id="Vector_7" d="M25.669 23.6065L23.1816 27.2123C23.0237 27.4413 23.029 27.7421 23.1922 27.9677L26.384 32.3254C26.62 32.6472 27.0884 32.6909 27.3811 32.4198L30.6616 29.3859C30.9153 29.1515 30.9437 28.7651 30.7272 28.4958L26.7406 23.5662C26.4638 23.22 25.9227 23.241 25.669 23.6065Z" fill="white"/>
<path id="Vector_8" d="M23.1591 10.7097H16.8571C16.7595 10.7097 16.6797 10.631 16.6797 10.5349V4.32355C16.6797 4.22737 16.7595 4.14868 16.8571 4.14868H23.1591C23.2566 4.14868 23.3365 4.22737 23.3365 4.32355V10.5349C23.3365 10.631 23.2566 10.7097 23.1591 10.7097Z" fill="white"/>
<path id="Vector_9" d="M26.9508 13.541L32.4083 11.836C32.7507 11.7294 33.118 11.9077 33.2386 12.2417L34.7059 16.2882C34.83 16.6292 34.6491 17.0051 34.3031 17.1275L28.7428 19.1036C28.3844 19.2312 27.9923 19.0389 27.8787 18.6804L26.5144 14.3629C26.4062 14.0166 26.5995 13.6494 26.9508 13.541Z" fill="white"/>
</g>
</g>
</g>
</svg>
