<svg width="264" height="81" viewBox="0 0 264 81" fill="none" xmlns="http://www.w3.org/2000/svg">
<path d="M113.505 6.80828C113.645 7.33795 113.714 8.17723 113.714 9.32611C113.714 10.4302 113.645 11.2471 113.505 11.7768C113.082 13.3658 112.109 14.3991 110.583 14.884C109.807 15.1377 108.811 15.2645 107.594 15.2645C106.35 15.2645 105.342 15.1377 104.566 14.884C103.885 14.6527 103.28 14.276 102.752 13.7463C102.223 13.2166 101.865 12.5601 101.679 11.7805C101.515 11.1576 101.432 10.3444 101.432 9.32984C101.432 8.27049 101.515 7.43121 101.679 6.81201C101.865 6.05106 102.223 5.40948 102.752 4.8798C103.28 4.35012 103.881 3.95846 104.566 3.70481C105.27 3.47355 106.278 3.35791 107.594 3.35791C108.883 3.35791 109.88 3.47355 110.583 3.70481C112.131 4.23449 113.105 5.26773 113.505 6.80828ZM112.835 56.501H102.314V19.9905H112.835V56.501Z" fill="#0086EE"/>
<path d="M158.12 39.697H137.71L142.67 30.0359H154.845C155.926 30.0359 156.873 29.939 157.694 29.7413C158.516 29.5473 159.284 29.219 159.999 28.7565C160.714 28.2977 161.258 27.6188 161.635 26.7199C162.012 25.8246 162.198 24.7168 162.198 23.4075C162.198 20.9456 161.559 19.2111 160.281 18.1965C159.003 17.1857 157.188 16.6784 154.845 16.6784H134.963V56.5012H124.408V7.01733H158.12C162.624 7.01733 166.12 8.2259 168.607 10.6393C171.095 13.0564 172.453 16.1711 172.688 19.9907C172.711 20.4048 172.723 22.281 172.723 25.6157C172.723 28.2604 172.205 30.6253 171.175 32.7067C170.144 34.7881 168.504 36.4741 166.264 37.761C164.027 39.0517 161.312 39.697 158.12 39.697Z" fill="#0086EE"/>
<path d="M194.93 19.9906H213.686L208.688 29.7225H199.012C198.145 29.7225 197.38 29.7561 196.726 29.8269C196.068 29.8978 195.349 30.0582 194.562 30.3119C193.774 30.5655 193.124 30.9087 192.61 31.3451C192.093 31.7815 191.667 32.397 191.325 33.1915C190.982 33.986 190.815 34.9335 190.815 36.0376V56.5011H180.256V34.139C180.256 32.162 180.56 30.3268 181.173 28.637C181.781 26.9473 182.679 25.4515 183.866 24.1497C185.049 22.8516 186.585 21.8333 188.476 21.0947C190.362 20.3599 192.515 19.9906 194.93 19.9906Z" fill="#0086EE"/>
<path d="M249.087 56.5009H232.267C229.851 56.5009 227.691 56.1316 225.793 55.3968C223.891 54.6619 222.354 53.6436 221.183 52.3418C220.007 51.0437 219.117 49.5479 218.509 47.8545C217.9 46.1647 217.596 44.3295 217.596 42.3488V34.1351C217.596 32.1581 217.9 30.3229 218.509 28.6331C219.117 26.9434 220.015 25.4476 221.202 24.1458C222.385 22.8477 223.921 21.8294 225.812 21.0908C227.698 20.356 229.851 19.9867 232.27 19.9867H249.09C251.506 19.9867 253.659 20.356 255.549 21.0908C257.436 21.8256 258.972 22.844 260.159 24.1458C261.342 25.4476 262.24 26.9397 262.852 28.6331C263.461 30.3229 263.769 32.1581 263.769 34.1351V42.3488C263.769 45.0158 263.248 47.3994 262.202 49.492C261.159 51.5846 259.509 53.2781 257.257 54.565C254.997 55.8593 252.278 56.5009 249.087 56.5009ZM253.202 40.4912V36.0374C253.202 34.9333 253.031 33.9859 252.692 33.1913C252.35 32.3968 251.924 31.7814 251.407 31.3449C250.89 30.9085 250.239 30.5616 249.456 30.3117C248.668 30.058 247.949 29.8976 247.291 29.8268C246.633 29.7596 245.872 29.7223 245.005 29.7223H236.348C235.481 29.7223 234.716 29.7559 234.062 29.8268C233.404 29.8976 232.685 30.0506 231.898 30.293C231.11 30.5355 230.468 30.8749 229.962 31.3114C229.456 31.7478 229.03 32.3707 228.676 33.1727C228.326 33.9784 228.147 34.9333 228.147 36.0374V40.4875C228.147 41.5916 228.322 42.539 228.676 43.3336C229.03 44.1281 229.456 44.7435 229.962 45.18C230.464 45.6164 231.11 45.9558 231.898 46.1983C232.685 46.4408 233.404 46.5937 234.062 46.6646C234.72 46.7317 235.481 46.769 236.348 46.769H245.005C245.872 46.769 246.637 46.7354 247.291 46.6646C247.949 46.5937 248.668 46.4408 249.456 46.1983C250.243 45.9558 250.886 45.6164 251.392 45.18C251.897 44.7435 252.323 44.1281 252.677 43.3336C253.027 42.5428 253.202 41.5953 253.202 40.4912Z" fill="#0086EE"/>
<path d="M72.9661 80.1166H11.4111C5.10835 80.1166 0 75.1071 0 68.9263V8.56538C0 2.38456 5.10835 -2.625 11.4111 -2.625H72.9661C79.2689 -2.625 84.3772 2.38456 84.3772 8.56538V68.93C84.3772 75.1071 79.265 80.1166 72.9661 80.1166Z" fill="#0086EE"/>
<path d="M14.1174 23.0196C14.4065 22.3183 15.2129 21.9677 15.9356 22.2288L46.5743 33.2438C49.6629 34.4748 49.6058 36.9292 46.5743 40.5511L28.1264 66.0018C27.6624 66.6434 26.7495 66.7851 26.1028 66.3114L17.9325 60.3283C17.2897 59.8583 17.168 58.9631 17.6587 58.3438L29.6745 43.1622C31.0743 41.5583 30.8917 40.4877 29.6745 39.7678L11.5005 33.2215C10.7435 32.9492 10.3632 32.1136 10.6675 31.3788L14.1174 23.0196Z" fill="white"/>
<path d="M54.3609 47.2804L49.0282 54.9719C48.6896 55.4605 48.7011 56.1021 49.051 56.5833L55.8938 65.8788C56.3997 66.5651 57.4039 66.6584 58.0315 66.0802L65.0645 59.6084C65.6084 59.1086 65.6693 58.2842 65.2053 57.7098L56.6584 47.1946C56.065 46.456 54.9049 46.5008 54.3609 47.2804Z" fill="white"/>
<path d="M48.9848 19.7706H35.4741C35.2649 19.7706 35.0938 19.6027 35.0938 19.3976V6.14816C35.0938 5.943 35.2649 5.77515 35.4741 5.77515H48.9848C49.194 5.77515 49.3652 5.943 49.3652 6.14816V19.3976C49.3652 19.6027 49.194 19.7706 48.9848 19.7706Z" fill="white"/>
<path d="M57.1112 25.8098L68.8113 22.173C69.5455 21.9454 70.3328 22.3259 70.5915 23.0384L73.7371 31.6699C74.0034 32.3973 73.6154 33.1992 72.8737 33.4603L60.9529 37.6754C60.1846 37.9477 59.344 37.5374 59.1005 36.7727L56.1755 27.563C55.9435 26.8244 56.3581 26.0411 57.1112 25.8098Z" fill="white"/>
<path d="M102.228 63.4503C102.015 63.4503 101.848 63.5063 101.734 63.6219C101.616 63.7375 101.559 63.9091 101.559 64.1367V73.033C101.559 73.2531 101.616 73.4209 101.734 73.5403C101.851 73.6597 102.015 73.7194 102.228 73.7194C102.46 73.7194 102.631 73.6597 102.745 73.5403C102.856 73.4209 102.913 73.2531 102.913 73.033V64.1367C102.913 63.9091 102.856 63.7375 102.738 63.6219C102.62 63.5063 102.449 63.4503 102.228 63.4503Z" fill="white"/>
<path d="M112.422 63.5513H104.689C104.503 63.5513 104.358 63.5998 104.252 63.693C104.145 63.7863 104.092 63.928 104.092 64.1071C104.092 64.2898 104.145 64.4278 104.252 64.5286C104.358 64.6293 104.503 64.6778 104.689 64.6778H107.876V73.0333C107.876 73.2533 107.934 73.4212 108.051 73.5405C108.169 73.6599 108.337 73.7196 108.561 73.7196C108.786 73.7196 108.953 73.6599 109.063 73.5405C109.174 73.4212 109.231 73.2533 109.231 73.0333V64.6778H112.418C112.612 64.6778 112.76 64.6293 112.863 64.5286C112.966 64.4278 113.015 64.2898 113.015 64.1071C113.015 63.928 112.966 63.7863 112.863 63.693C112.764 63.596 112.616 63.5513 112.422 63.5513Z" fill="white"/>
<path d="M122.292 66.8262C121.885 66.6322 121.364 66.5315 120.732 66.5315C120.363 66.5315 119.968 66.5763 119.545 66.6658C119.123 66.7553 118.697 66.9045 118.271 67.1171C118.134 67.1656 118.039 67.2402 117.986 67.3447C117.933 67.4491 117.906 67.5573 117.914 67.6654C117.917 67.7736 117.952 67.8743 118.016 67.9639C118.081 68.0534 118.165 68.1131 118.271 68.1354C118.378 68.1578 118.503 68.1392 118.651 68.072C119.02 67.893 119.374 67.7587 119.717 67.6729C120.055 67.5871 120.386 67.5461 120.705 67.5461C121.261 67.5461 121.653 67.6729 121.885 67.9228C122.117 68.1765 122.235 68.5831 122.235 69.1426V69.5566H121.755C120.705 69.5566 119.872 69.62 119.249 69.7506C118.629 69.8774 118.187 70.09 117.925 70.3847C117.663 70.6794 117.533 71.086 117.533 71.597C117.533 71.9961 117.644 72.3579 117.86 72.6825C118.077 73.007 118.385 73.2644 118.777 73.4546C119.169 73.6448 119.61 73.7418 120.093 73.7418C120.492 73.7418 120.846 73.671 121.162 73.5367C121.478 73.3987 121.74 73.201 121.957 72.9436C122.086 72.7869 122.181 72.6079 122.261 72.4139V73.0406C122.261 73.2606 122.318 73.4248 122.429 73.5404C122.539 73.656 122.695 73.712 122.889 73.712C123.094 73.712 123.246 73.656 123.357 73.5404C123.463 73.4248 123.516 73.2606 123.516 73.0406V69.2694C123.516 68.6427 123.414 68.1243 123.212 67.7214C123.007 67.3223 122.702 67.0239 122.292 66.8262ZM121.987 71.8245C121.824 72.123 121.599 72.3617 121.318 72.537C121.036 72.7123 120.709 72.8018 120.34 72.8018C119.872 72.8018 119.507 72.6825 119.241 72.4437C118.975 72.205 118.842 71.9029 118.842 71.5299C118.842 71.2352 118.929 71.0039 119.104 70.8361C119.279 70.6682 119.583 70.5526 120.013 70.4854C120.447 70.4183 121.036 70.3847 121.782 70.3847H122.235V70.7838C122.235 71.183 122.151 71.5261 121.987 71.8245Z" fill="white"/>
<path d="M130.725 66.8338C130.356 66.6324 129.885 66.5354 129.314 66.5354C128.721 66.5354 128.196 66.6734 127.736 66.9495C127.378 67.1621 127.1 67.4605 126.899 67.8335V67.2217C126.899 67.0017 126.842 66.8375 126.731 66.7294C126.621 66.6212 126.461 66.5652 126.26 66.5652C126.054 66.5652 125.895 66.6212 125.781 66.7294C125.663 66.8375 125.606 67.0017 125.606 67.2217V73.0482C125.606 73.2683 125.663 73.4324 125.781 73.548C125.898 73.6637 126.058 73.7196 126.26 73.7196C126.705 73.7196 126.929 73.4958 126.929 73.0482V69.6762C126.929 69.0383 127.116 68.531 127.488 68.1543C127.861 67.7775 128.359 67.591 128.979 67.591C129.512 67.591 129.9 67.7328 130.143 68.02C130.387 68.3072 130.509 68.7586 130.509 69.3778V73.0482C130.509 73.2683 130.566 73.4324 130.684 73.548C130.801 73.6637 130.965 73.7196 131.178 73.7196C131.391 73.7196 131.555 73.6637 131.665 73.548C131.775 73.4324 131.832 73.2683 131.832 73.0482V69.3069C131.832 68.6802 131.741 68.158 131.555 67.7514C131.372 67.3411 131.094 67.0352 130.725 66.8338Z" fill="white"/>
<path d="M139.681 63.4504C139.468 63.4504 139.305 63.5064 139.194 63.6146C139.084 63.7227 139.027 63.8869 139.027 64.1069V67.8445C138.856 67.5088 138.605 67.2253 138.27 67.0015C137.814 66.6919 137.27 66.539 136.638 66.539C136.007 66.539 135.455 66.6845 134.984 66.9754C134.512 67.2664 134.147 67.6804 133.892 68.2175C133.633 68.7547 133.508 69.3963 133.508 70.1386C133.508 70.8734 133.637 71.5112 133.9 72.0596C134.162 72.6079 134.527 73.0257 134.999 73.3166C135.471 73.6076 136.014 73.753 136.638 73.753C137.27 73.753 137.814 73.5964 138.278 73.283C138.612 73.0555 138.86 72.7683 139.027 72.4289V73.0555C139.027 73.2756 139.084 73.4397 139.202 73.5553C139.32 73.671 139.48 73.7269 139.681 73.7269C139.894 73.7269 140.062 73.671 140.176 73.5553C140.294 73.4397 140.351 73.2756 140.351 73.0555V64.1144C140.351 63.8943 140.294 63.7302 140.176 63.622C140.062 63.5064 139.894 63.4504 139.681 63.4504ZM138.057 72.4177C137.741 72.6191 137.369 72.7161 136.943 72.7161C136.311 72.7161 135.805 72.496 135.421 72.0521C135.037 71.6082 134.847 70.9704 134.847 70.1311C134.847 69.5678 134.934 69.0978 135.109 68.7174C135.284 68.3369 135.528 68.0497 135.843 67.852C136.159 67.658 136.524 67.561 136.943 67.561C137.582 67.561 138.095 67.7811 138.472 68.2175C138.852 68.654 139.038 69.2918 139.038 70.1311C139.038 70.6943 138.955 71.1643 138.784 71.5448C138.616 71.929 138.373 72.22 138.057 72.4177Z" fill="white"/>
<path d="M156.301 63.6146C156.195 63.5064 156.043 63.4504 155.849 63.4504C155.674 63.4504 155.537 63.484 155.442 63.5511C155.343 63.6183 155.252 63.7339 155.164 63.8943L151.486 70.6608L147.808 63.8943C147.72 63.7339 147.625 63.6183 147.522 63.5511C147.42 63.484 147.283 63.4504 147.108 63.4504C146.914 63.4504 146.762 63.5064 146.648 63.6146C146.537 63.7227 146.48 63.8794 146.48 64.0771V73.0891C146.48 73.2793 146.534 73.4323 146.64 73.5479C146.747 73.6635 146.899 73.7195 147.093 73.7195C147.298 73.7195 147.45 73.6635 147.553 73.5479C147.656 73.4323 147.705 73.2831 147.705 73.0891V66.013L150.896 71.8059C150.965 71.9216 151.045 72.0111 151.136 72.0782C151.227 72.1454 151.341 72.1789 151.478 72.1789C151.623 72.1789 151.737 72.1491 151.821 72.0857C151.904 72.0223 151.984 71.9327 152.06 71.8059L155.236 65.9832V73.0928C155.236 73.2831 155.286 73.436 155.389 73.5516C155.491 73.6672 155.643 73.7232 155.849 73.7232C156.054 73.7232 156.206 73.6672 156.309 73.5516C156.412 73.436 156.461 73.2868 156.461 73.0928V64.0808C156.461 63.8794 156.408 63.7227 156.301 63.6146Z" fill="white"/>
<path d="M166.074 73.0816L165.096 72.0521C165.203 71.873 165.305 71.6791 165.397 71.4702C165.515 71.1979 165.613 70.9032 165.693 70.5861C165.773 70.2691 165.826 69.9296 165.857 69.5715C165.872 69.4298 165.842 69.3179 165.769 69.2395C165.697 69.1612 165.591 69.1202 165.454 69.1202C165.321 69.1202 165.222 69.1538 165.146 69.2209C165.073 69.288 165.024 69.3925 165.005 69.5268C164.982 69.8065 164.944 70.0714 164.891 70.3213C164.837 70.5712 164.769 70.8062 164.693 71.0188C164.636 71.1755 164.571 71.3135 164.503 71.4478L162.78 69.5715C163.122 69.3552 163.403 69.15 163.613 68.9561C163.852 68.736 164.027 68.5085 164.134 68.2809C164.24 68.0534 164.294 67.8034 164.294 67.5386C164.294 67.0574 164.13 66.6807 163.799 66.4009C163.472 66.1212 163.042 65.9832 162.517 65.9832C162.122 65.9832 161.779 66.054 161.483 66.1995C161.186 66.3412 160.958 66.5427 160.798 66.7963C160.638 67.05 160.558 67.3446 160.558 67.6804C160.558 67.9825 160.631 68.2697 160.771 68.5457C160.904 68.8031 161.125 69.0941 161.433 69.4223L161.281 69.5156C161.019 69.6797 160.787 69.8476 160.585 70.0191C160.383 70.1907 160.216 70.3698 160.083 70.5488C159.946 70.7316 159.847 70.9256 159.782 71.1345C159.718 71.3433 159.683 71.5634 159.683 71.7984C159.683 72.1938 159.782 72.5333 159.984 72.8242C160.186 73.1152 160.475 73.339 160.847 73.4994C161.224 73.6598 161.669 73.7418 162.19 73.7418C162.685 73.7418 163.152 73.6411 163.586 73.4359C163.963 73.2569 164.29 73.0182 164.571 72.716L165.256 73.4509C165.343 73.5441 165.423 73.6113 165.495 73.656C165.568 73.7008 165.663 73.7194 165.781 73.7194C165.914 73.7194 166.017 73.6859 166.096 73.6224C166.176 73.559 166.218 73.477 166.222 73.3763C166.226 73.283 166.176 73.1823 166.074 73.0816ZM161.772 66.9791C161.962 66.8038 162.209 66.718 162.517 66.718C162.787 66.718 163.008 66.7963 163.175 66.953C163.343 67.1096 163.426 67.326 163.426 67.5983C163.426 67.7699 163.381 67.934 163.293 68.0869C163.206 68.2399 163.065 68.3965 162.867 68.5607C162.707 68.6912 162.487 68.8442 162.232 69.0045C162.057 68.8143 161.912 68.6465 161.81 68.5159C161.688 68.363 161.604 68.2175 161.559 68.0869C161.513 67.9564 161.486 67.8184 161.486 67.6729C161.486 67.3857 161.582 67.1544 161.772 66.9791ZM163.316 72.7123C163 72.8727 162.639 72.9548 162.232 72.9548C161.73 72.9548 161.342 72.8466 161.072 72.634C160.802 72.4176 160.665 72.1229 160.665 71.7425C160.665 71.5149 160.707 71.3098 160.787 71.1307C160.866 70.9517 160.996 70.7801 161.175 70.6085C161.353 70.4407 161.589 70.2616 161.882 70.0788L161.981 70.0154L164.012 72.1565C163.803 72.3915 163.571 72.578 163.316 72.7123Z" fill="white"/>
<path d="M179.003 63.6144C178.896 63.5063 178.744 63.4503 178.55 63.4503C178.375 63.4503 178.238 63.4839 178.143 63.551C178.044 63.6182 177.953 63.7338 177.865 63.8942L174.187 70.6606L170.509 63.8942C170.422 63.7338 170.327 63.6182 170.224 63.551C170.121 63.4839 169.984 63.4503 169.809 63.4503C169.615 63.4503 169.463 63.5063 169.349 63.6144C169.239 63.7226 169.182 63.8793 169.182 64.077V73.089C169.182 73.2792 169.235 73.4321 169.341 73.5478C169.448 73.6634 169.6 73.7194 169.794 73.7194C169.999 73.7194 170.152 73.6634 170.254 73.5478C170.357 73.4321 170.406 73.2829 170.406 73.089V66.0129L173.598 71.8058C173.666 71.9214 173.746 72.011 173.837 72.0781C173.929 72.1452 174.043 72.1788 174.18 72.1788C174.324 72.1788 174.438 72.149 174.522 72.0856C174.606 72.0221 174.686 71.9326 174.762 71.8058L177.938 65.9831V73.0927C177.938 73.2829 177.987 73.4359 178.09 73.5515C178.193 73.6671 178.345 73.7231 178.55 73.7231C178.756 73.7231 178.908 73.6671 179.01 73.5515C179.113 73.4359 179.163 73.2867 179.163 73.0927V64.0807C179.166 63.8793 179.109 63.7226 179.003 63.6144Z" fill="white"/>
<path d="M193.117 68.3333H190.538C190.363 68.3333 190.226 68.3744 190.124 68.4602C190.021 68.546 189.972 68.669 189.972 68.8332C189.972 68.9936 190.021 69.1241 190.124 69.2174C190.226 69.3144 190.363 69.3591 190.538 69.3591H192.52V72.1828C192.212 72.2873 191.896 72.3768 191.565 72.4439C191.132 72.5297 190.69 72.5745 190.234 72.5745C189.002 72.5745 188.07 72.235 187.446 71.5599C186.818 70.8847 186.506 69.8925 186.506 68.5907C186.506 67.744 186.639 67.0241 186.906 66.4272C187.172 65.8342 187.571 65.3791 188.108 65.0695C188.64 64.7599 189.291 64.6069 190.059 64.6069C190.572 64.6069 191.048 64.6704 191.478 64.7935C191.911 64.9165 192.326 65.1217 192.722 65.4089C192.859 65.4947 192.988 65.532 193.106 65.5171C193.227 65.5022 193.33 65.4537 193.41 65.3679C193.494 65.2821 193.547 65.1814 193.577 65.0695C193.608 64.9538 193.604 64.8419 193.57 64.7263C193.536 64.6107 193.459 64.5137 193.345 64.4279C192.881 64.0773 192.364 63.8199 191.801 63.6632C191.238 63.5066 190.656 63.4282 190.055 63.4282C189.279 63.4282 188.583 63.5476 187.967 63.7863C187.351 64.025 186.826 64.3682 186.392 64.8233C185.959 65.2746 185.631 65.8192 185.411 66.4496C185.186 67.0837 185.076 67.7999 185.076 68.5982C185.076 69.665 185.274 70.5826 185.666 71.3547C186.058 72.1269 186.636 72.72 187.4 73.134C188.161 73.5481 189.093 73.7569 190.188 73.7569C190.732 73.7569 191.284 73.7047 191.847 73.6003C192.41 73.4958 192.897 73.3615 193.304 73.2011C193.44 73.1527 193.536 73.0743 193.596 72.9662C193.653 72.858 193.684 72.7274 193.684 72.5745V68.904C193.684 68.725 193.634 68.5833 193.532 68.49C193.429 68.3818 193.288 68.3333 193.117 68.3333Z" fill="white"/>
<path d="M199.537 66.5203C198.886 66.5576 198.346 66.7255 197.92 67.0201C197.601 67.2402 197.361 67.5386 197.194 67.9116V67.2216C197.194 67.0015 197.137 66.8374 197.026 66.7292C196.916 66.621 196.756 66.5651 196.555 66.5651C196.353 66.5651 196.189 66.621 196.075 66.7292C195.961 66.8374 195.9 67.0015 195.9 67.2216V73.048C195.9 73.2681 195.957 73.4322 196.075 73.5479C196.193 73.6635 196.361 73.7194 196.585 73.7194C196.798 73.7194 196.962 73.6635 197.072 73.5479C197.182 73.4322 197.239 73.2681 197.239 73.048V69.7058C197.239 69.1053 197.41 68.6353 197.757 68.2921C198.103 67.9489 198.593 67.7438 199.236 67.6766L199.499 67.6617C199.704 67.6431 199.852 67.5796 199.951 67.4677C200.05 67.3596 200.092 67.2141 200.081 67.0313C200.073 66.8411 200.016 66.7068 199.921 66.6247C199.818 66.5464 199.693 66.5128 199.537 66.5203Z" fill="white"/>
<path d="M205.946 66.9794C205.433 66.6847 204.824 66.5355 204.124 66.5355C203.599 66.5355 203.128 66.6176 202.705 66.7854C202.283 66.9533 201.922 67.192 201.621 67.5054C201.321 67.8187 201.089 68.1992 200.929 68.6393C200.769 69.0832 200.689 69.5793 200.689 70.1314C200.689 70.8662 200.83 71.5041 201.112 72.0449C201.393 72.5895 201.793 73.0073 202.306 73.302C202.82 73.5967 203.428 73.7459 204.128 73.7459C204.653 73.7459 205.125 73.6638 205.547 73.4959C205.969 73.3281 206.33 73.0894 206.631 72.776C206.931 72.4627 207.163 72.0822 207.323 71.6346C207.483 71.187 207.563 70.6872 207.563 70.1351C207.563 69.404 207.422 68.7661 207.14 68.229C206.859 67.6881 206.46 67.2741 205.946 66.9794ZM205.965 71.5488C205.794 71.9293 205.551 72.2202 205.235 72.4217C204.919 72.6231 204.546 72.7201 204.12 72.7201C203.489 72.7201 202.983 72.5 202.599 72.0561C202.215 71.6122 202.025 70.9744 202.025 70.1351C202.025 69.5718 202.112 69.1019 202.287 68.7214C202.462 68.3409 202.705 68.0537 203.021 67.856C203.337 67.662 203.702 67.565 204.12 67.565C204.759 67.565 205.269 67.7851 205.649 68.2215C206.03 68.658 206.216 69.2958 206.216 70.1351C206.22 70.6946 206.136 71.1683 205.965 71.5488Z" fill="white"/>
<path d="M214.7 66.5651C214.487 66.5651 214.324 66.621 214.214 66.7292C214.103 66.8374 214.046 67.0015 214.046 67.2216V70.6048C214.046 71.2314 213.864 71.7387 213.498 72.1192C213.133 72.4997 212.662 72.6899 212.08 72.6899C211.555 72.6899 211.171 72.5482 210.927 72.2684C210.684 71.9887 210.562 71.5522 210.562 70.9629V67.2216C210.562 67.0015 210.505 66.8374 210.387 66.7292C210.269 66.621 210.106 66.5651 209.893 66.5651C209.68 66.5651 209.516 66.621 209.406 66.7292C209.295 66.8374 209.238 67.0015 209.238 67.2216V70.9629C209.238 71.5821 209.33 72.0968 209.516 72.5072C209.699 72.9175 209.984 73.2271 210.368 73.4359C210.752 73.6448 211.231 73.7493 211.802 73.7493C212.384 73.7493 212.894 73.6038 213.323 73.3129C213.635 73.104 213.886 72.8205 214.073 72.4736V73.048C214.073 73.2681 214.13 73.4322 214.24 73.5479C214.35 73.6635 214.514 73.7194 214.727 73.7194C215.153 73.7194 215.37 73.4956 215.37 73.048V67.2216C215.37 67.0015 215.313 66.8374 215.195 66.7292C215.077 66.621 214.913 66.5651 214.7 66.5651Z" fill="white"/>
<path d="M223.945 68.2141C223.683 67.6769 223.318 67.2629 222.854 66.972C222.389 66.681 221.838 66.5355 221.207 66.5355C220.568 66.5355 220.016 66.6922 219.56 67.0055C219.225 67.2331 218.974 67.5203 218.803 67.8634V67.2219C218.803 67.0018 218.746 66.8377 218.635 66.7295C218.525 66.6213 218.361 66.5654 218.148 66.5654C217.943 66.5654 217.783 66.6213 217.669 66.7295C217.555 66.8377 217.494 67.0018 217.494 67.2219V75.6333C217.494 75.8422 217.551 76.0063 217.669 76.1182C217.787 76.2339 217.947 76.2898 218.148 76.2898C218.361 76.2898 218.529 76.2339 218.643 76.1182C218.761 76.0026 218.818 75.8422 218.818 75.6333V72.4254C218.989 72.7611 219.24 73.0446 219.575 73.2759C220.031 73.5892 220.575 73.7459 221.207 73.7459C221.838 73.7459 222.389 73.6004 222.861 73.3094C223.333 73.0185 223.698 72.6007 223.953 72.0524C224.211 71.5041 224.337 70.8662 224.337 70.1314C224.337 69.3928 224.208 68.7512 223.945 68.2141ZM222.736 71.5488C222.561 71.9293 222.317 72.2202 222.002 72.4217C221.686 72.6231 221.321 72.7201 220.902 72.7201C220.263 72.7201 219.75 72.5 219.373 72.0561C218.993 71.6122 218.806 70.9744 218.806 70.1351C218.806 69.5718 218.89 69.1019 219.061 68.7214C219.232 68.3409 219.472 68.0537 219.788 67.856C220.103 67.662 220.476 67.565 220.902 67.565C221.541 67.565 222.055 67.7851 222.431 68.2215C222.812 68.658 222.998 69.2958 222.998 70.1351C222.998 70.6946 222.911 71.1683 222.736 71.5488Z" fill="white"/>
</svg>
